Coordinates
version=1
nRows=7
nColumns=40
inDegrees=yes

Units are S.I. units (second, meters, Newtons, ...)
Angles are in degrees.

endheader
time	pelvis_tilt	pelvis_list	pelvis_rotation	pelvis_tx	pelvis_ty	pelvis_tz	hip_flexion_r	hip_adduction_r	hip_rotation_r	knee_angle_r	knee_angle_r_beta	ankle_angle_r	subtalar_angle_r	mtp_angle_r	hip_flexion_l	hip_adduction_l	hip_rotation_l	knee_angle_l	knee_angle_l_beta	ankle_angle_l	subtalar_angle_l	mtp_angle_l	lumbar_extension	lumbar_bending	lumbar_rotation	arm_flex_r	arm_add_r	arm_rot_r	elbow_flex_r	pro_sup_r	wrist_flex_r	wrist_dev_r	arm_flex_l	arm_add_l	arm_rot_l	elbow_flex_l	pro_sup_l	wrist_flex_l	wrist_dev_l
     10.00000000	     -2.30475765	     -4.36544678	     -1.34040873	      1.00892149	      0.93405316	      0.45084778	     26.96104228	     -6.45344199	     -2.86625156	     66.22353690	     66.22353690	     -2.29434189	    -14.07690978	     -0.13826620	     12.53505045	     -3.54656630	     -4.61745804	     22.47888169	     22.47888169	     14.20930438	    -12.46926707	      2.60496882	    -11.28454202	      4.02018648	      1.47043375	      4.86812185	    -13.76811506	     -1.11715680	     26.38180132	     46.00134565	      0.00000000	      0.00000000	     13.70353381	    -14.98214553	     -2.29082432	     54.49383311	     46.18676322	      0.00000000	      0.00000000
     10.01328571	     -2.31365025	     -4.41259875	     -1.72768373	      1.00858798	      0.93495540	      0.45066313	     27.46832694	     -6.24057700	     -3.02432261	     64.73102253	     64.73102253	     -1.73816109	    -14.65576071	     -0.11348562	     11.65062388	     -3.56506826	     -4.97040105	     21.61719670	     21.61719670	     14.29437034	    -12.27306755	      2.71169518	    -11.38943583	      4.04841039	      1.42386840	      3.36100325	    -13.73499495	     -1.12953454	     25.84158466	     46.01709029	      0.00000000	      0.00000000	     14.39408905	    -15.13583671	     -2.66240929	     55.20206106	     46.24392184	      0.00000000	      0.00000000
     10.02657143	     -2.39664792	     -4.51761041	     -2.08135837	      1.00816026	      0.93556297	      0.45055402	     27.97353745	     -5.94829395	     -3.24983829	     63.09376817	     63.09376817	     -1.18379984	    -15.19922851	     -0.00308053	     10.98153863	     -3.67483998	     -5.35407259	     20.98929884	     20.98929884	     14.41094458	    -12.03831777	      2.63082033	    -11.40109884	      4.12306679	      1.34378912	      1.75489046	    -13.71507509	     -1.22783557	     25.62593462	     46.02410678	      0.00000000	      0.00000000	     14.94641071	    -15.27660196	     -3.18941580	     56.23516300	     46.31779873	      0.00000000	      0.00000000
     10.03985714	     -2.46838699	     -4.64493456	     -2.42733249	      1.00763820	      0.93610280	      0.45054628	     28.37264726	     -5.60048570	     -3.48651705	     61.25393506	     61.25393506	     -0.59981555	    -15.54969557	      0.23498919	     10.31445094	     -3.81582329	     -5.75423843	     20.37104698	     20.37104698	     14.52468833	    -11.73372730	      2.45248745	    -11.47119209	      4.22538854	      1.27570965	      0.11742071	    -13.70048207	     -1.39789388	     25.67651691	     46.02492840	      0.00000000	      0.00000000	     15.42015274	    -15.40634000	     -3.86934098	     57.50686230	     46.40785209	      0.00000000	      0.00000000
     10.05314286	     -2.58072961	     -4.80437043	     -2.73375615	      1.00698451	      0.93650277	      0.45060985	     28.69737112	     -5.22499895	     -3.81260478	     59.15407599	     59.15407599	     -0.01768834	    -15.66102066	      0.54490552	      9.75008445	     -3.99294152	     -6.11906574	     19.82365876	     19.82365876	     14.61335760	    -11.46229402	      2.25392476	    -11.51100443	      4.36972763	      1.14795113	     -1.38833642	    -13.67722370	     -1.57939601	     25.80529266	     46.02366012	      0.00000000	      0.00000000	     15.83826147	    -15.53190100	     -4.53720386	     58.69628504	     46.49339728	      0.00000000	      0.00000000
     10.06642857	     -2.76876668	     -4.96895221	     -3.02058732	      1.00617140	      0.93659541	      0.45083049	     29.02263850	     -4.82210665	     -4.17226934	     56.83280384	     56.83280384	      0.63304813	    -15.48645234	      0.98662313	      9.34620362	     -4.21000860	     -6.53307875	     19.38552429	     19.38552429	     14.60239300	    -11.13251805	      1.57228696	    -11.51228459	      4.52051303	      0.85732696	     -3.05310619	    -13.61849498	     -2.10800198	     26.94445682	     46.01279401	      0.00000000	      0.00000000	     15.89988477	    -15.59554225	     -5.94462983	     60.55304367	     46.66699918	      0.00000000	      0.00000000
     10.07971429	     -3.00435796	     -5.13141383	     -3.28521595	      1.00523098	      0.93658650	      0.45117351	     29.25513496	     -4.39965123	     -4.57127912	     54.15985820	     54.15985820	      1.17857994	    -15.08851308	      1.13567191	      9.02345499	     -4.38967930	     -6.72762295	     18.97980064	     18.97980064	     14.73586974	    -11.06095937	      1.52179515	    -11.40679501	      4.66863785	      0.66119502	     -4.15506423	    -13.49828527	     -2.12484755	     26.66013314	     46.01773307	      0.00000000	      0.00000000	     16.43065220	    -15.85904997	     -6.22279430	     61.07583787	     46.70495161	      0.00000000	      0.00000000
